<svg xmlns="http://www.w3.org/2000/svg" viewBox="0 0 365.33 87.28"><defs><style>.cls-1{fill:#955c40;}.cls-2{fill:#6c432e;}.cls-3{opacity:0.55;}.cls-4{fill:#25a159;}.cls-5{opacity:0.7;}.cls-6{opacity:0.85;}.cls-7{opacity:0.4;}</style></defs><g id="Layer_2" data-name="Layer 2"><g id="Layer_1-2" data-name="Layer 1"><path class="cls-1" d="M229.73,41.46a6.83,6.83,0,0,1-2.68-2.57,7.34,7.34,0,0,1,0-7.33A6.9,6.9,0,0,1,229.73,29a8.45,8.45,0,0,1,7.67,0,6.9,6.9,0,0,1,2.69,2.56,7.47,7.47,0,0,1,0,7.36,7,7,0,0,1-2.69,2.55,8.45,8.45,0,0,1-7.67,0m6.34-2a4.46,4.46,0,0,0,1.75-1.75,5.26,5.26,0,0,0,0-5A4.46,4.46,0,0,0,236.07,31a5,5,0,0,0-2.5-.63,5,5,0,0,0-2.51.63,4.5,4.5,0,0,0-1.74,1.75,5.26,5.26,0,0,0,0,5,4.5,4.5,0,0,0,1.74,1.75,5,5,0,0,0,2.51.63,5,5,0,0,0,2.5-.63"/><path class="cls-1" d="M245,41.93a6.56,6.56,0,0,1-2.38-1.22l.9-2a7,7,0,0,0,2.1,1.11,7.72,7.72,0,0,0,2.49.43,4.35,4.35,0,0,0,2.32-.5,1.5,1.5,0,0,0,.76-1.31,1.27,1.27,0,0,0-.43-1,2.81,2.81,0,0,0-1.08-.6c-.44-.15-1-.31-1.79-.5a18.82,18.82,0,0,1-2.57-.76,4.15,4.15,0,0,1-1.69-1.18,3.18,3.18,0,0,1-.71-2.18,3.7,3.7,0,0,1,.63-2.09,4.2,4.2,0,0,1,1.89-1.5,7.65,7.65,0,0,1,3.09-.56,10,10,0,0,1,2.5.32,6.89,6.89,0,0,1,2.13.91l-.81,2a7.78,7.78,0,0,0-1.91-.81,7,7,0,0,0-1.93-.28,4.09,4.09,0,0,0-2.28.51,1.6,1.6,0,0,0-.74,1.38,1.25,1.25,0,0,0,.42,1,3.25,3.25,0,0,0,1.09.6c.43.14,1,.31,1.79.49a18.7,18.7,0,0,1,2.54.75A4.31,4.31,0,0,1,253,36.1a3.13,3.13,0,0,1,.71,2.15,3.67,3.67,0,0,1-.63,2.09,4.28,4.28,0,0,1-1.9,1.49,7.74,7.74,0,0,1-3.1.55,10.78,10.78,0,0,1-3.11-.45"/><polygon class="cls-1" points="258.94 30.45 254.32 30.45 254.32 28.27 266.13 28.27 266.13 30.45 261.52 30.45 261.52 42.18 258.94 42.18 258.94 30.45"/><polygon class="cls-1" points="278.52 40.02 278.52 42.18 268.08 42.18 268.08 28.27 278.24 28.27 278.24 30.43 270.66 30.43 270.66 34.05 277.38 34.05 277.38 36.18 270.66 36.18 270.66 40.02 278.52 40.02"/><path class="cls-1" d="M284,41.46a6.83,6.83,0,0,1-2.68-2.57,7.41,7.41,0,0,1,0-7.33A6.9,6.9,0,0,1,284,29a8.47,8.47,0,0,1,7.68,0,6.88,6.88,0,0,1,2.68,2.56,7.4,7.4,0,0,1,0,7.36,6.92,6.92,0,0,1-2.68,2.55,8.47,8.47,0,0,1-7.68,0m6.35-2a4.5,4.5,0,0,0,1.74-1.75,5.26,5.26,0,0,0,0-5A4.5,4.5,0,0,0,290.35,31a5,5,0,0,0-2.51-.63,5,5,0,0,0-2.5.63,4.46,4.46,0,0,0-1.75,1.75,5.26,5.26,0,0,0,0,5,4.46,4.46,0,0,0,1.75,1.75,5,5,0,0,0,2.5.63,5,5,0,0,0,2.51-.63"/><path class="cls-1" d="M307,28.87a4.55,4.55,0,0,1,2.05,1.7,5.2,5.2,0,0,1,0,5.28A4.59,4.59,0,0,1,307,37.57a7.71,7.71,0,0,1-3.16.6h-3.14v4h-2.58V28.27h5.72a7.71,7.71,0,0,1,3.16.6m-.71,6.4a2.85,2.85,0,0,0,0-4.1,4,4,0,0,0-2.57-.71h-3V36h3a4,4,0,0,0,2.57-.71"/><path class="cls-1" d="M320.64,39h-6.95l-1.38,3.22h-2.66l6.26-13.91h2.55l6.28,13.91H322Zm-.85-2-2.63-6.09-2.6,6.09Z"/><polygon class="cls-1" points="328.63 30.45 324.02 30.45 324.02 28.27 335.83 28.27 335.83 30.45 331.22 30.45 331.22 42.18 328.63 42.18 328.63 30.45"/><polygon class="cls-1" points="350.14 28.27 350.14 42.18 347.56 42.18 347.56 36.22 340.36 36.22 340.36 42.18 337.78 42.18 337.78 28.27 340.36 28.27 340.36 34.01 347.56 34.01 347.56 28.27 350.14 28.27"/><polygon class="cls-1" points="359.88 37.27 359.88 42.18 357.3 42.18 357.3 37.31 351.83 28.27 354.6 28.27 358.67 35.05 362.79 28.27 365.33 28.27 359.88 37.27"/><path class="cls-1" d="M234.47,55.16a4.34,4.34,0,0,1,1.25,3.39v6.22h-2.35V63.48a2.8,2.8,0,0,1-1.3,1.06,5.73,5.73,0,0,1-4.13,0,3.32,3.32,0,0,1-1.38-1.14,2.9,2.9,0,0,1-.49-1.64,2.8,2.8,0,0,1,1.07-2.29,5.25,5.25,0,0,1,3.35-.87h2.74v-.16a2.17,2.17,0,0,0-.67-1.71,2.9,2.9,0,0,0-2-.59,5.83,5.83,0,0,0-1.76.27,4.42,4.42,0,0,0-1.46.78l-1-1.81a6.06,6.06,0,0,1,2-1,8.74,8.74,0,0,1,2.48-.34,5.17,5.17,0,0,1,3.59,1.12m-2.26,7.52a2.34,2.34,0,0,0,1-1.23V60.22h-2.56c-1.44,0-2.15.47-2.15,1.41a1.28,1.28,0,0,0,.54,1.08,2.47,2.47,0,0,0,1.49.39,3.28,3.28,0,0,0,1.66-.42"/><path class="cls-1" d="M248.14,55.21a4.62,4.62,0,0,1,1.21,3.48v6.08h-2.48V59a3,3,0,0,0-.66-2.1,2.43,2.43,0,0,0-1.87-.7,2.86,2.86,0,0,0-2.16.82,3.29,3.29,0,0,0-.8,2.38v5.36H238.9V54.16h2.36v1.37a3.88,3.88,0,0,1,1.55-1.11,5.47,5.47,0,0,1,2.11-.38,4.44,4.44,0,0,1,3.22,1.17"/><path class="cls-1" d="M263,50V64.77h-2.38V63.4a3.74,3.74,0,0,1-1.53,1.13,4.94,4.94,0,0,1-2,.38,5.61,5.61,0,0,1-2.76-.67,4.83,4.83,0,0,1-1.91-1.92,6.15,6.15,0,0,1,0-5.7,4.94,4.94,0,0,1,1.91-1.91,5.61,5.61,0,0,1,2.76-.67,5,5,0,0,1,1.92.36,3.73,3.73,0,0,1,1.5,1.07V50Zm-4,12.36a3,3,0,0,0,1.13-1.16,3.57,3.57,0,0,0,.42-1.75,3.51,3.51,0,0,0-.42-1.75A3,3,0,0,0,259,56.55a3.46,3.46,0,0,0-3.23,0,3,3,0,0,0-1.13,1.17,3.51,3.51,0,0,0-.42,1.75,3.57,3.57,0,0,0,.42,1.75,3,3,0,0,0,1.13,1.16,3.39,3.39,0,0,0,3.23,0"/><polygon class="cls-1" points="284.36 50.86 284.36 64.77 281.78 64.77 281.78 58.81 274.58 58.81 274.58 64.77 272 64.77 272 50.86 274.58 50.86 274.58 56.6 281.78 56.6 281.78 50.86 284.36 50.86"/><polygon class="cls-1" points="298.54 62.61 298.54 64.77 288.1 64.77 288.1 50.86 298.26 50.86 298.26 53.02 290.68 53.02 290.68 56.64 297.4 56.64 297.4 58.77 290.68 58.77 290.68 62.61 298.54 62.61"/><path class="cls-1" d="M310.44,61.55h-6.95l-1.38,3.22h-2.66l6.26-13.91h2.55l6.28,13.91h-2.71Zm-.85-2L307,53.44l-2.6,6.09Z"/><polygon class="cls-1" points="316.31 50.86 318.89 50.86 318.89 62.59 326.17 62.59 326.17 64.77 316.31 64.77 316.31 50.86"/><polygon class="cls-1" points="329.75 53.05 325.13 53.05 325.13 50.86 336.94 50.86 336.94 53.05 332.33 53.05 332.33 64.77 329.75 64.77 329.75 53.05"/><polygon class="cls-1" points="351.26 50.86 351.26 64.77 348.67 64.77 348.67 58.81 341.47 58.81 341.47 64.77 338.89 64.77 338.89 50.86 341.47 50.86 341.47 56.6 348.67 56.6 348.67 50.86 351.26 50.86"/><path class="cls-2" d="M44.32,48.36H6.16a16.33,16.33,0,0,0,5.46,11.49,18.15,18.15,0,0,0,12.49,4.38,19.71,19.71,0,0,0,7.81-1.52,17,17,0,0,0,6.16-4.47l3.47,4A19.71,19.71,0,0,1,34,67.79a25.74,25.74,0,0,1-10,1.9,25.31,25.31,0,0,1-12.45-3A21.57,21.57,0,0,1,3,58.42a23.57,23.57,0,0,1-3-12,24.44,24.44,0,0,1,2.91-12,20.89,20.89,0,0,1,8-8.24,22.22,22.22,0,0,1,11.4-2.95,22,22,0,0,1,11.36,2.95,20.89,20.89,0,0,1,7.9,8.19,24.69,24.69,0,0,1,2.86,12ZM11.23,32.79a16.47,16.47,0,0,0-5.07,11H38.51a16.52,16.52,0,0,0-5.07-11,15.62,15.62,0,0,0-11.15-4.21,15.51,15.51,0,0,0-11.06,4.21m79.32-5Q95.32,32.22,95.32,41V69.26h-5.9V62.15a14.06,14.06,0,0,1-6.11,5.55,21.39,21.39,0,0,1-9.58,2q-7.64,0-12.15-3.64a11.79,11.79,0,0,1-4.51-9.63,11.68,11.68,0,0,1,4.21-9.37q4.2-3.55,13.4-3.55H89.16V40.72q0-5.89-3.29-9t-9.63-3.08a24.36,24.36,0,0,0-8.33,1.43A21,21,0,0,0,61.06,34l-2.77-4.59a24.58,24.58,0,0,1,8.32-4.56,32.43,32.43,0,0,1,10.24-1.6q8.93,0,13.7,4.47M83.61,62.45a14.19,14.19,0,0,0,5.55-6.9V48.1H74.85q-11.7,0-11.71,8.15a7.47,7.47,0,0,0,3,6.29c2,1.53,4.86,2.3,8.5,2.3a16.2,16.2,0,0,0,8.93-2.39M197.34,48.36H159.17a16.3,16.3,0,0,0,5.47,11.49,18.15,18.15,0,0,0,12.49,4.38,19.78,19.78,0,0,0,7.81-1.52,16.93,16.93,0,0,0,6.15-4.47l3.47,4A19.56,19.56,0,0,1,187,67.79a25.65,25.65,0,0,1-10,1.9,25.26,25.26,0,0,1-12.45-3,21.66,21.66,0,0,1-8.46-8.28,23.67,23.67,0,0,1-3-12,24.43,24.43,0,0,1,2.9-12,21,21,0,0,1,8-8.24,22.25,22.25,0,0,1,11.41-2.95,22,22,0,0,1,11.36,2.95,20.93,20.93,0,0,1,7.89,8.19,24.69,24.69,0,0,1,2.86,12ZM164.25,32.79a16.53,16.53,0,0,0-5.08,11h32.36a16.53,16.53,0,0,0-5.08-11,16.74,16.74,0,0,0-22.2,0"/><g class="cls-3"><path class="cls-4" d="M120.74,14.09A3.77,3.77,0,1,1,121,8.77a3.77,3.77,0,0,1-.29,5.32"/></g><g class="cls-3"><path class="cls-4" d="M133.12,79.09a3.77,3.77,0,1,1,.28-5.32,3.77,3.77,0,0,1-.28,5.32"/></g><g class="cls-5"><path class="cls-4" d="M119.09,25.08a4.21,4.21,0,1,1,.32-5.95,4.21,4.21,0,0,1-.32,5.95"/></g><g class="cls-5"><path class="cls-4" d="M137.17,69.28a4.21,4.21,0,1,1,.32-6,4.22,4.22,0,0,1-.32,6"/></g><g class="cls-6"><path class="cls-4" d="M135.88,58a4.66,4.66,0,1,1,.35-6.58,4.66,4.66,0,0,1-.35,6.58"/></g><g class="cls-6"><path class="cls-4" d="M123.18,36.43a4.66,4.66,0,1,1,.35-6.58,4.67,4.67,0,0,1-.35,6.58"/></g><g class="cls-7"><path class="cls-4" d="M126.39,5.8a3.32,3.32,0,1,1,.25-4.7,3.33,3.33,0,0,1-.25,4.7"/></g><g class="cls-7"><path class="cls-4" d="M126.49,86.43a3.32,3.32,0,1,1,.25-4.69,3.32,3.32,0,0,1-.25,4.69"/></g><path class="cls-4" d="M130.19,47.35a5.1,5.1,0,1,1,.39-7.2,5.1,5.1,0,0,1-.39,7.2"/></g></g></svg>